<svg xmlns="http://www.w3.org/2000/svg" xmlns:xlink="http://www.w3.org/1999/xlink" version="1.1" x="0px" y="0px" viewBox="0 0 100 125" enable-background="new 0 0 100 100" xml:space="preserve"><path d="M21.859,22.238c1.514-1.269,3.513-1.905,5.997-1.905l43.938-0.009c2.373,0,4.311,0.611,5.825,1.819l7.407-16.401  c0,0-9.004-4.375-34.039-4.375c-26.505,0-36.56,4.413-36.56,4.413L21.859,22.238z"/><path d="M94.707,60.103h0.122c-0.002-2.62-0.797-4.934-2.394-6.938c-1.598-2.002-3.586-3.331-5.961-3.987L77.876,28.67  c-1.474-3.355-4.013-5.032-7.616-5.032l-40.869,0.01c-3.682,0-6.223,1.679-7.609,5.035l-8.594,20.513  c-2.455,0.657-4.46,1.985-6.016,3.99c-1.552,2.006-2.332,4.319-2.332,6.939l0.007,23.95l7.489-0.003l0.003,7.365  c0,2.047,0.718,3.782,2.151,5.22c1.432,1.432,3.133,2.145,5.097,2.145c2.044,0,3.783-0.716,5.22-2.148  c1.427-1.435,2.148-3.173,2.148-5.222l-0.002-7.367l45.779-0.011l0.002,7.367c0,2.047,0.718,3.785,2.153,5.22  c1.434,1.43,3.129,2.148,5.096,2.148c2.044-0.003,3.785-0.719,5.216-2.151c1.434-1.435,2.148-3.173,2.148-5.22l-0.002-7.365  l7.367-0.003L94.707,60.103z M14.981,73.573H10.66v-14.72h4.322V73.573z M72.999,66.213H26.497l-4.911-18.212l7.061-16.133  c0.407-1.059,1.103-1.596,2.086-1.596l38.065-0.01c1.061,0,1.801,0.537,2.21,1.595l7.067,16.133L72.999,66.213z M89.011,73.573  H84.69v-14.72h4.322V73.573z"/><path d="M58.493,42.777c0.013-0.19,0.057-0.371,0.057-0.564c0-4.74-3.858-8.599-8.6-8.599c-4.74,0-8.599,3.858-8.599,8.599  c0,0.193,0.044,0.374,0.057,0.564h-6.831v21.177h30.747V42.777H58.493z M44.352,42.213c0-3.087,2.511-5.598,5.598-5.598  c3.089,0,5.599,2.511,5.599,5.598c0,0.193-0.038,0.376-0.057,0.564H44.409C44.39,42.589,44.352,42.406,44.352,42.213z"/><text x="0" y="115" fill="#000000" font-size="5px" font-weight="bold" font-family="'Helvetica Neue', Helvetica, Arial-Unicode, Arial, Sans-serif">Created by Luis Prado</text><text x="0" y="120" fill="#000000" font-size="5px" font-weight="bold" font-family="'Helvetica Neue', Helvetica, Arial-Unicode, Arial, Sans-serif">from the Noun Project</text></svg>